<mxfile host="Electron" modified="2023-09-28T10:08:27.299Z" agent="Mozilla/5.0 (Macintosh; Intel Mac OS X 10_15_7) AppleWebKit/537.36 (KHTML, like Gecko) draw.io/21.2.1 Chrome/112.0.5615.87 Electron/24.1.2 Safari/537.36" etag="tl5QXZZjbI_2RXotdeDB" version="21.2.1" type="device">
  <diagram name="Page-1" id="oQQE7e4IIGS0dt7FjCOH">
    <mxGraphModel dx="1193" dy="765" grid="1" gridSize="10" guides="1" tooltips="1" connect="1" arrows="1" fold="1" page="1" pageScale="1" pageWidth="827" pageHeight="1169" math="0" shadow="0">
      <root>
        <mxCell id="0" />
        <mxCell id="1" parent="0" />
        <mxCell id="0f3jDH_Tx14VmXPBkaNo-1" value="" style="rounded=0;whiteSpace=wrap;html=1;" vertex="1" parent="1">
          <mxGeometry x="200" y="80" width="400" height="680" as="geometry" />
        </mxCell>
        <mxCell id="0f3jDH_Tx14VmXPBkaNo-2" style="edgeStyle=orthogonalEdgeStyle;rounded=0;orthogonalLoop=1;jettySize=auto;html=1;exitX=0.5;exitY=1;exitDx=0;exitDy=0;" edge="1" parent="1" source="0f3jDH_Tx14VmXPBkaNo-1" target="0f3jDH_Tx14VmXPBkaNo-1">
          <mxGeometry relative="1" as="geometry" />
        </mxCell>
        <mxCell id="0f3jDH_Tx14VmXPBkaNo-3" value="FLWSB" style="rounded=0;whiteSpace=wrap;html=1;fillColor=#d5e8d4;strokeColor=#82b366;" vertex="1" parent="1">
          <mxGeometry x="210" y="480" width="380" height="265" as="geometry" />
        </mxCell>
        <mxCell id="0f3jDH_Tx14VmXPBkaNo-4" value="Power manager" style="rounded=0;whiteSpace=wrap;html=1;rotation=-90;fillColor=#e1d5e7;strokeColor=#9673a6;" vertex="1" parent="1">
          <mxGeometry x="150" y="220" width="210" height="90" as="geometry" />
        </mxCell>
        <mxCell id="0f3jDH_Tx14VmXPBkaNo-5" value="Battery" style="rounded=0;whiteSpace=wrap;html=1;rotation=-90;fillColor=#fff2cc;strokeColor=#d6b656;" vertex="1" parent="1">
          <mxGeometry x="260" y="220" width="210" height="90" as="geometry" />
        </mxCell>
        <mxCell id="0f3jDH_Tx14VmXPBkaNo-6" value="Antenne" style="rounded=0;whiteSpace=wrap;html=1;rotation=-90;fillColor=#f8cecc;strokeColor=#b85450;" vertex="1" parent="1">
          <mxGeometry x="480" y="280" width="160" height="20" as="geometry" />
        </mxCell>
      </root>
    </mxGraphModel>
  </diagram>
</mxfile>
